<?xml version="1.0" encoding="utf-8"?>
<!DOCTYPE svg PUBLIC "-//W3C//DTD SVG 20010904//EN" "http://www.w3.org/TR/2001/REC-SVG-20010904/DTD/svg10.dtd">
<svg version="1.0" xmlns="http://www.w3.org/2000/svg" width="602pt" height="602pt" viewBox="0 0 602 602" style="" preserveAspectRatio="xMidYMid meet">
<g fill="#1D1814FD" stroke="#1D1814FD">
<path d="M 274.000 14.130 C 185.841 21.278 105.111 67.688 58.843 137.819 C 40.631 165.423 28.624 195.063 22.371 227.851 C 20.217 239.146 19.680 245.395 19.259 264.088 C 18.725 287.845 19.570 299.547 23.092 317.182 C 35.005 376.830 69.982 431.159 121.409 469.896 C 130.689 476.886 144.425 485.807 156.215 492.500 L 161.500 495.500 141.500 496.000 C 128.866 496.316 120.763 496.933 119.500 497.675 C 114.611 500.546 112.000 505.747 112.000 512.615 C 112.000 519.492 116.395 526.087 122.093 527.762 C 123.417 528.151 151.983 528.595 185.574 528.749 L 246.648 529.030 246.199 539.925 C 245.826 548.992 246.100 551.968 247.834 557.660 C 251.464 569.581 258.676 579.093 269.428 586.143 C 278.644 592.185 285.994 594.038 299.324 593.680 C 309.444 593.407 311.151 593.077 317.395 590.186 C 327.163 585.664 333.496 580.545 339.061 572.673 C 345.720 563.255 348.419 554.880 348.464 543.500 C 348.484 538.550 348.154 533.263 347.731 531.750 L 346.962 529.000 410.731 528.994 C 449.998 528.991 475.878 528.606 478.086 527.993 C 481.916 526.929 486.461 522.548 488.037 518.402 C 490.593 511.679 488.119 502.674 482.579 498.532 C 480.103 496.682 477.967 496.455 458.680 496.000 L 437.500 495.500 444.500 491.590 C 454.890 485.787 475.331 472.049 485.000 464.371 C 495.952 455.674 518.662 432.859 527.002 422.175 C 551.591 390.674 568.381 354.854 575.975 317.691 C 586.416 266.592 578.903 210.508 555.343 163.692 C 523.749 100.912 466.061 52.120 395.623 28.602 C 357.568 15.896 314.870 10.816 274.000 14.130 M 216.454 134.364 C 221.270 141.621 228.656 148.211 235.808 151.633 C 240.226 153.747 243.403 154.452 250.000 154.780 C 258.371 155.196 259.968 154.862 270.127 150.568 C 271.403 150.029 271.187 151.024 269.127 155.188 C 266.913 159.661 266.500 161.833 266.500 168.998 C 266.500 176.271 266.902 178.318 269.280 183.161 C 273.667 192.093 282.775 199.141 291.799 200.584 L 295.781 201.221 296.462 226.360 C 296.836 240.187 296.998 258.475 296.821 267.000 L 296.500 282.500 282.500 284.203 C 164.833 298.513 115.998 303.494 115.253 301.259 C 115.032 300.597 113.584 300.356 111.686 300.663 C 107.183 301.394 96.719 298.469 88.589 294.207 C 76.178 287.700 67.696 276.674 66.349 265.296 C 64.516 249.825 78.066 234.949 93.932 235.015 C 98.504 235.034 109.249 237.560 112.995 239.497 C 115.719 240.906 115.984 240.862 117.464 238.748 C 118.903 236.693 118.895 236.397 117.373 235.283 C 114.899 233.474 104.231 230.227 98.316 229.483 C 79.847 227.159 63.880 239.669 60.457 259.148 C 59.622 263.898 61.585 273.216 64.733 279.446 C 70.063 289.995 84.030 300.361 98.500 304.509 C 108.917 307.496 108.648 307.282 109.415 313.165 C 111.064 325.807 122.125 353.125 133.025 371.471 C 157.369 412.448 191.798 441.768 232.079 455.828 C 267.850 468.314 313.023 469.352 346.577 458.457 C 389.673 444.465 427.661 408.582 453.932 357.052 C 460.481 344.207 467.289 327.971 471.459 315.250 C 473.874 307.885 474.428 307.000 476.624 307.000 C 482.495 307.000 495.138 303.603 502.839 299.955 C 513.213 295.043 522.724 286.028 526.703 277.339 C 532.417 264.858 530.516 250.412 521.868 240.587 C 511.999 229.375 498.481 226.564 481.500 232.193 C 473.596 234.813 472.816 235.502 474.234 238.615 C 475.003 240.302 475.851 240.867 476.928 240.411 C 484.485 237.206 488.977 235.867 493.890 235.354 C 505.767 234.112 516.368 239.921 521.549 250.511 C 523.866 255.247 524.170 256.933 523.838 263.235 C 523.360 272.348 520.437 278.676 513.549 285.512 C 504.322 294.671 488.169 301.000 474.023 301.000 C 468.022 301.000 308.648 283.714 303.250 282.477 L 301.000 281.962 300.771 252.481 C 300.645 236.266 300.532 218.214 300.521 212.364 L 300.500 201.728 305.770 200.379 C 312.905 198.554 316.367 196.633 321.155 191.845 C 330.095 182.905 333.123 167.739 328.183 156.647 C 326.255 152.318 326.209 151.872 327.761 152.517 C 351.191 162.258 374.862 150.193 385.183 123.250 C 386.922 118.713 388.700 115.000 389.135 115.000 C 391.286 115.000 425.601 130.429 427.000 132.026 C 427.275 132.339 429.750 133.879 432.500 135.448 C 440.188 139.832 452.632 148.515 461.729 155.842 C 468.173 161.033 469.584 162.608 468.229 163.104 C 467.278 163.452 443.438 170.184 415.250 178.064 C 371.814 190.207 364.000 192.667 364.000 194.196 C 364.000 195.188 364.499 196.000 365.108 196.000 C 366.322 196.000 416.588 182.097 459.446 169.907 L 473.393 165.940 480.772 173.220 C 499.555 191.749 516.907 217.661 526.496 241.500 C 530.414 251.241 535.891 268.668 536.554 273.500 C 536.780 275.150 537.416 278.750 537.968 281.500 C 540.054 291.903 540.962 311.539 539.987 325.178 C 538.574 344.957 534.654 362.588 527.687 380.500 C 525.975 384.900 524.531 388.725 524.477 389.000 C 524.183 390.486 517.734 402.551 513.519 409.500 C 493.755 442.081 464.120 470.100 428.430 489.947 L 417.546 496.000 368.741 496.000 C 321.148 496.000 319.783 495.946 313.718 493.818 C 304.988 490.755 289.041 490.769 280.593 493.848 C 274.851 495.940 273.336 496.000 226.177 496.000 L 177.666 496.000 168.083 490.910 C 115.925 463.209 76.716 418.383 59.518 366.791 C 52.314 345.183 50.554 333.493 50.587 307.500 C 50.613 287.426 50.855 284.362 53.352 272.500 C 61.184 235.280 78.769 201.836 104.556 175.116 L 113.612 165.733 125.056 168.940 C 179.933 184.322 222.211 196.000 223.021 196.000 C 223.560 196.000 224.000 195.188 224.000 194.195 C 224.000 192.224 226.669 193.044 154.727 172.922 C 134.502 167.265 118.077 162.289 118.227 161.865 C 118.788 160.277 136.876 146.386 147.000 139.767 C 159.559 131.555 181.528 120.478 195.973 115.072 L 206.446 111.153 209.588 119.954 C 211.316 124.794 214.406 131.279 216.454 134.364 M 329.261 18.482 C 346.202 20.280 358.450 22.354 371.500 25.635 C 412.444 35.928 450.447 54.492 482.000 79.612 C 493.257 88.574 515.935 111.378 524.154 122.000 C 551.744 157.657 568.108 195.565 574.661 239.000 C 577.011 254.578 576.984 285.999 574.607 302.500 C 563.313 380.905 515.218 448.028 441.076 488.860 C 435.892 491.715 431.233 493.911 430.722 493.741 C 430.211 493.570 432.051 492.201 434.812 490.699 C 458.019 478.068 483.502 456.290 501.157 434.000 C 539.460 385.640 553.220 323.912 538.576 266.137 C 530.049 232.493 513.677 203.010 487.957 174.979 C 483.306 169.910 479.370 165.425 479.211 165.013 C 479.052 164.601 483.448 163.023 488.980 161.506 C 494.512 159.988 499.225 158.445 499.453 158.076 C 499.681 157.707 499.543 156.879 499.147 156.237 C 498.621 155.387 495.181 155.967 486.463 158.379 L 474.500 161.688 468.500 156.559 C 448.294 139.284 423.792 124.441 398.954 114.426 L 389.407 110.577 389.353 99.038 C 389.272 81.584 385.151 68.908 375.667 56.933 C 366.824 45.767 355.361 40.468 341.615 41.189 C 330.817 41.756 323.828 45.043 315.247 53.592 C 308.054 60.757 301.715 72.674 299.867 82.500 C 298.116 91.814 297.831 91.984 296.509 84.500 C 292.204 60.125 274.598 41.508 254.640 40.227 C 236.867 39.087 221.963 48.864 212.885 67.619 C 208.064 77.581 206.041 86.672 206.015 98.500 L 205.995 107.500 197.747 110.378 C 184.514 114.995 167.322 123.076 154.156 130.867 C 141.895 138.123 120.619 153.500 116.076 158.390 C 114.742 159.826 113.009 161.000 112.225 161.000 C 111.440 161.000 106.053 159.618 100.253 157.928 C 91.832 155.475 89.543 155.121 88.895 156.170 C 87.585 158.289 88.635 158.739 104.749 162.963 L 108.997 164.076 99.992 174.117 C 76.766 200.016 62.259 225.503 53.641 255.554 C 48.930 271.981 47.001 283.969 46.330 301.000 C 44.737 341.395 55.875 380.820 78.474 414.790 C 90.625 433.055 94.318 437.566 109.873 453.144 C 123.190 466.481 119.593 464.703 103.997 450.240 C 78.343 426.450 61.740 404.536 46.990 375.000 C 21.104 323.162 15.396 262.946 31.112 207.500 C 59.248 108.234 149.170 34.408 260.000 19.583 C 274.847 17.597 278.108 17.394 298.500 17.191 C 307.850 17.098 321.692 17.679 329.261 18.482 M 307.500 289.469 C 309.150 289.757 311.175 290.044 312.000 290.107 C 312.825 290.170 318.675 291.091 325.000 292.153 C 331.325 293.215 338.525 294.302 341.000 294.569 C 343.475 294.835 348.200 295.509 351.500 296.066 C 354.800 296.624 359.525 297.280 362.000 297.526 C 364.475 297.771 368.075 298.279 370.000 298.654 C 371.925 299.030 373.857 299.254 374.294 299.154 C 374.731 299.053 377.881 299.442 381.294 300.019 C 384.707 300.596 389.413 301.275 391.750 301.529 C 394.088 301.782 398.026 302.215 400.501 302.490 C 402.976 302.765 407.026 303.215 409.501 303.490 C 420.836 304.749 423.952 305.046 430.500 305.490 C 434.350 305.750 439.975 306.192 443.000 306.471 C 446.025 306.751 452.888 307.013 458.250 307.055 C 463.613 307.096 468.000 307.310 468.000 307.530 C 468.000 308.118 464.922 317.097 463.725 320.000 C 463.158 321.375 462.537 323.311 462.345 324.303 C 462.153 325.295 461.235 327.545 460.304 329.303 C 459.372 331.061 458.474 333.301 458.307 334.280 C 458.140 335.259 456.786 338.409 455.299 341.280 C 453.811 344.151 452.557 346.725 452.512 347.000 C 452.466 347.275 451.792 348.625 451.013 350.000 C 450.234 351.375 449.513 352.989 449.411 353.586 C 448.839 356.932 430.322 387.000 428.834 387.000 C 428.375 387.000 427.995 387.563 427.990 388.250 C 427.984 388.938 426.639 391.075 425.002 393.000 C 423.364 394.925 420.633 398.300 418.933 400.500 C 414.436 406.318 404.985 416.000 403.802 416.000 C 403.218 416.000 403.102 415.256 403.530 414.250 C 403.938 413.288 404.906 409.350 405.679 405.500 C 407.217 397.840 406.270 388.357 403.417 382.840 C 402.609 381.278 402.203 380.000 402.513 380.000 C 402.824 380.000 402.160 379.015 401.039 377.811 C 399.918 376.608 399.000 375.302 399.000 374.910 C 399.000 374.027 389.913 365.000 389.024 365.000 C 388.668 365.000 387.505 364.211 386.439 363.247 C 381.651 358.917 363.366 353.418 350.500 352.438 C 345.686 352.071 333.071 352.978 323.000 354.415 C 317.851 355.149 304.130 360.783 298.111 364.634 L 291.018 369.172 286.915 365.659 C 284.657 363.727 280.266 360.876 277.155 359.323 C 274.045 357.770 271.225 356.124 270.888 355.665 C 270.552 355.205 270.102 354.926 269.888 355.044 C 269.675 355.163 265.138 354.251 259.806 353.019 C 251.372 351.071 248.187 350.841 235.306 351.256 C 226.048 351.554 218.252 352.351 214.500 353.384 C 198.700 357.733 187.382 366.656 181.437 379.447 C 178.525 385.712 178.214 387.283 178.264 395.447 C 178.295 400.426 178.639 404.950 179.028 405.500 C 179.417 406.050 180.471 408.750 181.371 411.500 C 182.270 414.250 184.329 418.525 185.945 421.000 C 187.562 423.475 188.267 425.275 187.512 425.000 C 182.318 423.107 152.000 392.607 152.000 389.274 C 152.000 388.573 151.599 388.000 151.109 388.000 C 149.687 388.000 136.703 367.443 131.212 356.500 C 125.435 344.985 122.856 339.000 123.673 339.000 C 123.988 339.000 123.733 338.383 123.107 337.628 C 120.991 335.080 113.165 309.377 114.230 308.479 C 114.379 308.354 123.725 307.928 135.000 307.533 C 146.275 307.137 157.075 306.670 159.000 306.495 C 160.925 306.319 165.200 305.942 168.500 305.657 C 171.800 305.372 180.575 304.437 188.000 303.580 C 195.425 302.724 203.525 301.827 206.000 301.588 C 208.475 301.349 213.425 300.688 217.000 300.120 C 220.575 299.551 226.200 298.818 229.500 298.491 C 232.800 298.163 236.625 297.719 238.000 297.503 C 242.405 296.813 268.375 292.927 272.000 292.416 C 273.925 292.145 280.450 291.080 286.500 290.050 C 296.841 288.290 300.198 288.197 307.500 289.469 M 253.901 357.054 C 268.104 359.358 281.861 366.212 288.255 374.168 L 291.377 378.053 295.906 373.460 C 300.849 368.445 310.531 363.404 321.000 360.393 C 326.265 358.879 330.824 358.529 345.000 358.555 C 361.344 358.584 362.984 358.760 369.835 361.222 C 384.056 366.334 392.682 373.190 398.003 383.610 C 400.174 387.862 400.500 389.807 400.500 398.524 C 400.500 407.916 400.284 408.986 397.071 415.524 C 393.158 423.487 385.125 432.452 376.854 438.087 C 366.632 445.050 344.586 452.830 322.727 457.186 C 313.342 459.056 308.383 459.410 292.500 459.343 C 276.145 459.274 271.760 458.903 261.000 456.674 C 246.997 453.773 227.477 448.075 219.663 444.607 C 207.880 439.377 192.942 424.487 187.347 412.394 C 180.141 396.817 182.971 380.770 194.880 369.685 C 200.202 364.732 209.824 359.597 216.000 358.414 C 217.925 358.045 221.075 357.403 223.000 356.987 C 228.297 355.841 246.675 355.881 253.901 357.054 M 357.000 47.289 C 369.163 51.774 380.921 68.030 384.427 85.208 C 386.369 94.722 386.409 100.692 384.594 110.162 C 382.737 119.853 380.619 125.081 375.191 133.365 C 360.718 155.456 334.211 158.122 316.916 139.226 C 292.972 113.067 299.259 62.762 328.245 48.581 C 338.227 43.697 346.279 43.336 357.000 47.289 M 266.840 47.385 C 278.049 53.136 286.642 64.306 291.159 79.000 C 294.634 90.305 294.372 106.440 290.528 117.768 C 278.998 151.754 246.608 161.731 224.708 138.044 C 209.076 121.135 205.432 91.707 216.173 69.110 C 220.431 60.153 231.378 49.141 239.000 46.147 C 247.000 43.005 259.375 43.555 266.840 47.385 M 478.750 500.750 C 478.979 501.438 479.793 502.000 480.558 502.000 C 484.435 502.000 486.508 514.770 483.400 519.512 C 479.727 525.118 481.300 525.000 410.346 525.000 C 344.291 525.000 344.368 525.004 344.882 521.750 C 344.947 521.338 344.523 521.000 343.941 521.000 C 343.359 521.000 343.160 520.550 343.500 520.000 C 343.840 519.450 343.744 519.000 343.286 519.000 C 342.829 519.000 341.639 517.485 340.641 515.632 C 338.618 511.875 328.372 501.000 326.856 501.000 C 326.320 501.000 326.167 500.539 326.515 499.976 C 327.518 498.352 478.207 499.119 478.750 500.750 M 268.000 499.885 C 268.000 500.372 266.916 501.480 265.591 502.348 C 264.266 503.217 262.104 504.956 260.786 506.213 C 257.902 508.966 249.000 522.313 249.000 523.884 C 249.000 524.693 231.988 525.000 187.154 525.000 C 120.332 525.000 121.264 525.071 117.508 519.708 C 115.950 517.483 115.325 506.000 116.763 506.000 C 117.182 506.000 117.970 504.988 118.513 503.750 C 120.497 499.227 122.354 499.116 197.250 499.056 C 237.663 499.024 268.000 499.379 268.000 499.885 M 305.000 141.280 C 309.684 142.383 312.000 143.319 312.000 144.108 C 312.000 144.599 312.540 145.000 313.199 145.000 C 314.526 145.000 324.053 154.774 323.760 155.834 C 323.658 156.200 324.215 157.625 324.997 159.000 C 326.827 162.217 327.014 176.385 325.250 178.150 C 324.563 178.837 324.000 180.210 324.000 181.200 C 324.000 182.190 323.550 183.000 323.000 183.000 C 322.450 183.000 322.000 183.520 322.000 184.155 C 322.000 187.183 310.591 195.690 305.000 196.831 C 300.670 197.715 291.027 197.267 289.643 196.119 C 288.913 195.513 288.020 195.313 287.658 195.675 C 287.296 196.037 287.000 195.782 287.000 195.108 C 287.000 194.434 286.550 194.160 286.000 194.500 C 285.450 194.840 285.000 194.615 285.000 194.000 C 285.000 193.385 284.547 193.162 283.993 193.504 C 283.439 193.847 282.716 193.423 282.386 192.563 C 282.056 191.704 281.209 191.000 280.504 191.000 C 279.124 191.000 273.996 185.079 274.105 183.612 C 274.141 183.123 273.694 182.429 273.111 182.068 C 272.528 181.708 271.901 180.432 271.718 179.232 C 271.535 178.033 271.073 176.740 270.692 176.359 C 268.674 174.341 270.795 156.000 273.047 156.000 C 273.571 156.000 274.000 155.248 274.000 154.329 C 274.000 152.252 282.745 143.724 284.048 144.530 C 284.572 144.853 285.000 144.655 285.000 144.089 C 285.000 141.371 297.770 139.577 305.000 141.280 M 289.837 536.241 C 284.281 539.507 281.228 544.061 280.363 550.370 C 279.158 559.160 284.850 568.145 293.414 570.972 L 297.000 572.155 297.000 581.109 C 297.000 591.781 296.782 591.970 287.192 589.615 C 277.208 587.163 270.333 583.372 263.569 576.588 C 253.466 566.455 247.857 551.304 249.460 538.475 L 250.149 532.962 272.324 533.231 L 294.500 533.500 289.837 536.241 M 344.918 542.000 C 345.096 564.857 329.909 584.273 307.769 589.492 C 304.321 590.305 301.163 590.977 300.750 590.985 C 300.338 590.993 300.000 586.781 300.000 581.625 L 300.000 572.250 303.234 571.603 C 308.477 570.555 313.565 566.531 315.995 561.510 C 320.581 552.037 317.021 540.400 308.211 536.059 C 306.470 535.202 305.035 534.163 305.023 533.750 C 305.010 533.338 313.298 533.000 323.441 533.000 C 336.564 533.000 342.093 532.659 342.613 531.816 C 343.887 529.756 344.856 534.038 344.918 542.000 M 313.977 497.860 C 321.585 500.805 329.329 506.371 334.026 512.271 C 336.212 515.015 338.000 517.652 338.000 518.131 C 338.000 518.609 319.535 519.000 296.943 519.000 L 255.887 519.000 257.693 515.920 C 262.252 508.147 274.347 499.487 285.000 496.370 C 291.676 494.417 307.136 495.212 313.977 497.860 M 306.759 539.995 C 316.764 546.095 316.320 561.053 305.980 566.248 C 292.590 572.976 278.257 556.940 286.464 544.414 C 290.544 538.188 300.309 536.062 306.759 539.995 M 340.305 523.905 C 340.827 524.427 340.962 526.016 340.605 527.437 L 339.957 530.021 296.228 529.760 L 252.500 529.500 252.197 527.375 C 251.502 522.503 251.683 522.484 296.999 522.728 C 322.051 522.863 339.744 523.344 340.305 523.905 M 299.418 112.929 C 301.008 120.554 305.293 130.794 309.176 136.247 C 311.239 139.145 311.259 139.306 309.449 138.518 C 305.704 136.886 292.713 136.750 288.250 138.295 C 284.469 139.604 282.395 139.110 284.976 137.515 C 288.559 135.300 297.000 114.391 297.000 107.728 C 297.000 103.180 297.699 104.682 299.418 112.929 "/></g>
<g fill="#0094DCFD" stroke="#0094DCFD">
<path d="M 273.000 18.662 C 202.946 25.515 142.516 53.338 95.422 100.424 C 46.274 149.564 20.729 212.865 23.359 279.000 C 25.845 341.527 50.842 397.049 97.154 442.909 C 103.769 449.459 109.163 454.612 109.142 454.361 C 109.121 454.110 105.878 450.438 101.937 446.202 C 55.264 396.044 36.288 331.765 49.576 268.832 C 57.092 233.234 74.665 200.275 101.090 172.216 C 108.782 164.048 108.903 164.602 98.874 162.016 C 89.641 159.634 88.000 158.875 88.000 156.981 C 88.000 155.957 88.338 154.927 88.750 154.694 C 89.163 154.460 94.000 155.544 99.500 157.102 C 105.000 158.661 110.331 159.950 111.346 159.968 C 112.362 159.985 115.962 157.590 119.346 154.645 C 141.046 135.764 170.494 119.150 202.000 108.015 L 205.500 106.778 205.644 95.631 C 205.763 86.451 206.261 83.072 208.468 76.491 C 212.113 65.618 216.308 58.557 223.091 51.872 C 236.082 39.069 252.864 35.830 268.554 43.096 C 271.379 44.405 276.605 48.468 280.742 52.572 C 288.921 60.688 294.117 70.149 296.392 81.072 L 297.731 87.500 298.892 83.000 C 302.484 69.069 309.355 57.006 317.608 50.142 C 319.749 48.362 324.425 45.464 328.000 43.703 C 333.958 40.767 335.292 40.503 344.000 40.536 C 352.259 40.567 354.234 40.928 359.122 43.298 C 373.492 50.266 381.593 60.366 387.756 79.000 C 388.580 81.492 389.525 89.478 389.872 96.895 L 390.500 110.291 399.500 113.983 C 422.669 123.487 444.943 136.674 464.230 152.304 L 474.960 161.000 485.730 157.947 C 491.653 156.269 497.056 154.711 497.735 154.485 C 498.986 154.069 501.576 157.757 500.669 158.664 C 500.398 158.935 495.974 160.275 490.838 161.642 C 485.702 163.008 481.196 164.435 480.824 164.813 C 480.452 165.191 483.071 168.650 486.644 172.500 C 537.217 226.994 555.661 292.729 539.112 359.500 C 528.037 404.182 498.653 446.607 458.164 476.372 C 448.071 483.791 449.056 483.921 460.269 476.650 C 500.290 450.696 531.775 415.142 552.499 372.500 C 563.230 350.419 568.767 333.001 573.179 307.441 C 576.186 290.021 576.433 253.527 573.661 236.149 C 570.840 218.454 564.156 194.379 558.490 181.500 C 546.688 154.672 534.946 135.546 517.973 115.500 C 509.451 105.435 491.813 88.259 482.000 80.469 C 461.715 64.365 434.308 48.339 412.000 39.538 C 406.775 37.476 400.925 35.165 399.000 34.402 C 385.371 28.999 353.594 21.834 333.000 19.520 C 320.847 18.154 283.635 17.622 273.000 18.662 "/></g>
<g fill="#990100FD" stroke="#990100FD">
<path d="M 286.000 290.600 C 281.875 291.361 269.275 293.320 258.000 294.952 C 195.659 303.979 156.352 308.000 130.450 308.000 C 112.877 308.000 114.005 307.241 116.540 317.356 C 118.292 324.348 118.535 325.067 123.484 337.879 C 135.274 368.401 155.396 397.344 178.925 417.624 L 187.500 425.015 184.778 420.246 C 177.592 407.655 175.938 393.358 180.240 381.016 C 183.550 371.519 192.561 362.209 203.423 357.064 C 214.686 351.729 221.714 350.476 239.500 350.631 C 261.065 350.819 273.799 354.660 286.718 364.872 L 291.833 368.914 295.600 365.921 C 300.932 361.683 310.107 357.517 320.000 354.841 C 327.182 352.898 330.981 352.538 344.500 352.521 C 362.383 352.498 367.543 353.529 381.000 359.818 C 389.607 363.840 399.132 372.678 402.753 380.000 C 407.353 389.300 408.190 403.822 404.620 412.366 C 403.785 414.365 403.388 416.000 403.736 416.000 C 404.715 416.000 415.571 404.203 420.761 397.500 C 423.316 394.200 425.656 391.275 425.961 391.000 C 427.328 389.768 440.103 369.816 443.569 363.500 C 453.471 345.460 468.431 310.098 466.836 308.503 C 466.636 308.303 458.154 307.649 447.986 307.049 C 414.662 305.083 358.139 298.239 311.500 290.524 C 300.759 288.747 295.967 288.761 286.000 290.600 "/></g>
<g fill="#FC9900FD" stroke="#FC9900FD">
<path d="M 219.500 358.636 C 204.476 361.797 193.412 369.390 187.699 380.463 C 184.918 385.853 184.587 387.411 184.615 395.000 C 184.653 405.329 186.994 412.055 193.739 421.218 C 203.971 435.117 214.482 442.472 232.074 448.043 C 279.332 463.009 316.226 462.355 359.000 445.793 C 377.399 438.669 389.602 428.647 396.202 415.240 C 399.849 407.834 400.991 397.300 399.034 389.140 C 396.327 377.860 385.452 367.777 370.293 362.494 C 363.705 360.198 360.319 359.699 348.402 359.268 C 325.121 358.425 307.828 363.282 297.094 373.679 C 294.073 376.606 291.353 378.997 291.050 378.993 C 290.748 378.989 289.406 377.380 288.068 375.416 C 283.415 368.584 271.138 361.828 258.157 358.958 C 247.638 356.632 229.735 356.482 219.500 358.636 "/></g>
<g fill="#D8251CFD" stroke="#D8251CFD">
<path d="M 333.699 505.939 C 336.976 509.206 341.110 514.606 342.887 517.939 L 346.117 524.000 412.136 524.000 L 478.154 524.000 481.077 521.077 C 483.554 518.600 484.000 517.365 484.000 512.981 C 484.000 506.735 481.723 502.448 477.652 501.029 C 475.734 500.360 448.988 500.000 401.221 500.000 L 327.741 500.000 333.699 505.939 "/></g>
<g fill="#D8251CFD" stroke="#D8251CFD">
<path d="M 122.000 501.752 C 115.654 504.922 114.718 516.780 120.426 521.690 L 123.112 524.000 185.306 523.993 L 247.500 523.986 249.919 520.243 C 256.365 510.269 257.720 508.538 262.299 504.421 L 267.216 500.000 196.358 500.002 C 130.901 500.003 125.233 500.136 122.000 501.752 "/></g>
<g fill="#D8251CFD" stroke="#D8251CFD">
<path d="M 289.882 142.381 C 277.556 146.785 270.771 156.193 270.685 169.000 C 270.557 187.957 288.014 200.917 306.456 195.556 C 314.195 193.306 321.898 185.835 324.473 178.081 C 329.307 163.529 321.877 147.969 307.720 142.993 C 301.248 140.718 295.123 140.508 289.882 142.381 M 298.750 148.248 C 302.694 151.929 301.116 159.881 296.024 161.990 C 288.229 165.219 280.782 156.040 285.607 149.151 C 288.792 144.603 294.430 144.216 298.750 148.248 "/></g>
<g fill="#FDF500FD" stroke="#FDF500FD">
<path d="M 250.630 536.250 C 249.687 539.769 249.894 546.406 251.129 552.201 C 255.321 571.887 271.095 586.492 291.462 589.547 L 296.000 590.227 296.000 581.660 L 296.000 573.094 291.750 571.214 C 284.509 568.010 279.026 559.916 279.006 552.399 C 278.990 546.704 283.405 538.944 288.389 535.905 L 291.500 534.007 271.367 534.004 C 251.331 534.000 251.230 534.011 250.630 536.250 "/></g>
<g fill="#FDF500FD" stroke="#FDF500FD">
<path d="M 324.500 534.035 C 314.600 534.329 307.028 534.667 307.673 534.785 C 310.137 535.236 315.361 540.586 317.120 544.459 C 322.160 555.553 316.093 568.927 304.578 572.106 L 301.000 573.094 301.000 581.547 C 301.000 586.196 301.355 590.000 301.790 590.000 C 304.236 590.000 314.708 586.675 318.812 584.595 C 329.701 579.078 339.441 567.081 342.468 555.462 C 344.043 549.414 344.587 534.360 343.250 533.809 C 342.838 533.639 334.400 533.741 324.500 534.035 "/></g>
<g fill="#FDF500FD" stroke="#FDF500FD">
<path d="M 284.912 497.445 C 277.168 499.581 268.176 505.027 262.947 510.748 C 260.226 513.725 258.000 516.575 258.000 517.081 C 258.000 517.624 274.155 518.000 297.535 518.000 C 342.289 518.000 339.424 518.687 330.810 510.017 C 321.430 500.575 310.218 495.937 297.145 496.089 C 292.940 496.139 287.435 496.748 284.912 497.445 "/></g>
<g fill="#990100FD" stroke="#990100FD">
<path d="M 291.304 539.956 C 275.254 549.742 289.179 574.690 305.980 566.248 C 316.320 561.053 316.764 546.095 306.759 539.995 C 302.510 537.404 295.519 537.386 291.304 539.956 "/></g>
<g fill="#1D1814FD" stroke="#1D1814FD">
<path d="M 367.345 238.543 C 367.019 239.392 366.921 240.246 367.126 240.441 C 367.505 240.801 391.038 247.834 459.381 268.009 C 496.927 279.094 498.891 279.486 498.985 275.917 C 498.993 275.596 490.338 272.796 479.750 269.694 C 469.163 266.592 439.904 257.967 414.730 250.527 C 389.557 243.087 368.730 237.000 368.449 237.000 C 368.168 237.000 367.671 237.694 367.345 238.543 "/></g>
<g fill="#1D1814FD" stroke="#1D1814FD">
<path d="M 190.000 245.575 C 163.328 253.512 111.967 268.681 96.750 273.117 C 91.230 274.726 90.000 275.461 90.000 277.151 C 90.000 279.705 82.875 281.545 152.305 261.054 C 183.762 251.770 212.088 243.428 215.250 242.516 C 219.690 241.236 221.000 240.419 221.000 238.929 C 221.000 237.868 220.438 237.021 219.750 237.047 C 219.063 237.074 205.675 240.911 190.000 245.575 "/></g>
<g fill="#1D1814FD" stroke="#1D1814FD">
<path d="M 366.674 218.660 C 366.303 219.030 366.000 219.933 366.000 220.667 C 366.000 221.765 377.929 222.000 433.573 222.000 C 497.391 222.000 501.128 221.903 500.810 220.250 C 500.493 218.607 496.391 218.484 433.910 218.243 C 397.301 218.102 367.044 218.289 366.674 218.660 "/></g>
<g fill="#1D1814FD" stroke="#1D1814FD">
<path d="M 88.000 220.000 C 88.000 221.980 88.667 222.000 155.000 222.000 C 221.333 222.000 222.000 221.980 222.000 220.000 C 222.000 218.020 221.333 218.000 155.000 218.000 C 88.667 218.000 88.000 218.020 88.000 220.000 "/></g>
<g fill="#FDF500FD" stroke="#FDF500FD">
<path d="M 254.211 524.189 C 253.545 524.855 253.000 526.210 253.000 527.200 C 253.000 528.906 255.280 529.000 296.566 529.000 L 340.133 529.000 339.816 526.250 L 339.500 523.500 297.461 523.239 C 265.597 523.042 255.128 523.272 254.211 524.189 "/></g>
<g fill="#1D1814FD" stroke="#1D1814FD">
<path d="M 318.732 87.028 C 316.660 88.149 313.599 90.952 311.929 93.257 C 309.103 97.157 309.014 97.537 310.637 98.724 C 313.177 100.581 313.642 100.402 317.580 96.043 C 319.547 93.866 322.043 91.804 323.127 91.460 C 325.903 90.579 329.610 93.315 332.007 98.015 C 334.067 102.051 335.338 102.705 337.936 101.061 C 339.167 100.282 339.115 99.582 337.573 96.163 C 333.377 86.857 325.821 83.194 318.732 87.028 "/></g>
<g fill="#1D1814FD" stroke="#1D1814FD">
<path d="M 267.500 87.523 C 263.582 89.626 260.919 92.170 258.695 95.937 C 256.891 98.993 256.891 98.993 259.478 100.172 C 261.747 101.206 262.257 101.079 263.614 99.141 C 266.335 95.255 270.416 92.000 272.565 92.000 C 274.954 92.000 278.025 95.035 280.409 99.750 C 282.096 103.089 283.430 103.647 285.936 102.061 C 287.167 101.282 287.115 100.582 285.573 97.163 C 281.600 88.351 273.754 84.166 267.500 87.523 "/></g>
<g fill="#1D1814FD" stroke="#1D1814FD">
<path d="M 288.444 147.574 C 285.881 148.822 285.350 149.703 285.153 153.036 C 284.614 162.175 295.642 165.490 299.504 157.349 C 301.044 154.105 301.031 153.681 299.280 150.308 C 297.108 146.123 293.363 145.178 288.444 147.574 M 296.429 150.571 C 299.504 153.647 297.513 159.000 293.294 159.000 C 290.544 159.000 287.000 156.504 287.000 154.568 C 287.000 153.950 287.701 152.445 288.557 151.223 C 290.372 148.630 294.173 148.316 296.429 150.571 "/></g>
<g fill="#4D1D11FD" stroke="#4D1D11FD">
<path d="M 326.654 499.750 C 326.399 500.163 359.785 500.269 400.845 499.987 L 475.500 499.475 401.309 499.237 C 360.504 499.107 326.909 499.338 326.654 499.750 "/></g>
<g fill="#990100FD" stroke="#990100FD">
<path d="M 87.321 220.500 C 87.525 222.478 88.261 222.500 154.764 222.496 L 222.000 222.493 155.073 222.246 C 92.319 222.015 88.114 221.891 87.631 220.250 C 87.230 218.890 87.161 218.946 87.321 220.500 "/></g>
<g fill="#990100FD" stroke="#990100FD">
<path d="M 248.150 523.000 C 248.052 523.651 226.711 524.086 187.000 524.246 L 126.000 524.492 187.250 524.496 C 235.639 524.499 248.479 524.238 248.400 523.250 C 248.345 522.563 248.233 522.450 248.150 523.000 "/></g>
<g fill="#990100FD" stroke="#990100FD">
<path d="M 336.397 516.834 C 336.922 517.683 326.720 518.048 296.802 518.250 L 256.500 518.523 297.250 518.762 C 335.402 518.985 340.527 518.680 336.845 516.405 C 336.134 515.965 335.962 516.130 336.397 516.834 "/></g>
<g fill="#4D1D11FD" stroke="#4D1D11FD">
<path d="M 272.251 533.960 C 283.665 534.257 293.002 534.163 293.001 533.750 C 293.001 533.338 283.663 533.095 272.250 533.210 L 251.500 533.420 272.251 533.960 "/></g>
<g fill="#4D1D11FD" stroke="#4D1D11FD">
<path d="M 305.652 533.750 C 305.396 534.163 313.132 534.255 322.843 533.955 L 340.500 533.409 323.309 533.205 C 313.854 533.092 305.908 533.338 305.652 533.750 "/></g>
<g fill="#990100FD" stroke="#990100FD">
<path d="M 300.643 201.690 C 300.289 202.044 300.085 207.096 300.190 212.917 L 300.380 223.500 300.833 212.273 C 301.082 206.099 300.997 201.336 300.643 201.690 "/></g>
<g fill="#990100FD" stroke="#990100FD">
<path d="M 300.424 573.338 C 300.141 574.075 300.065 578.237 300.254 582.588 L 300.598 590.500 300.799 581.833 C 300.934 575.997 301.408 573.002 302.250 572.662 C 303.229 572.267 303.222 572.141 302.219 572.079 C 301.514 572.036 300.706 572.602 300.424 573.338 "/></g>
<g fill="#096DA1FD" stroke="#096DA1FD">
<path d="M 101.636 446.779 C 101.320 447.291 102.125 448.709 103.425 449.930 C 104.725 451.151 106.048 451.732 106.364 451.221 C 106.680 450.709 105.875 449.291 104.575 448.070 C 103.275 446.849 101.952 446.268 101.636 446.779 "/></g>
<g fill="#096DA1FD" stroke="#096DA1FD">
<path d="M 504.000 100.000 L 511.000 107.000 504.000 100.000 L 497.000 93.000 504.000 100.000 "/></g>
<g fill="#4D1D11FD" stroke="#4D1D11FD">
<path d="M 169.000 409.000 L 174.000 414.000 169.000 409.000 L 164.000 404.000 169.000 409.000 "/></g>
<g fill="#4D1D11FD" stroke="#4D1D11FD">
<path d="M 463.250 307.930 C 465.863 308.294 468.000 308.234 468.000 307.796 C 468.000 307.358 465.863 307.060 463.250 307.134 L 458.500 307.267 463.250 307.930 "/></g>
</svg>
